<?xml version="1.0" encoding="UTF-8" standalone="no"?>
<svg
   width="79.71904"
   height="203.20111"
   viewBox="0 0 21.151985 53.741608"
   version="1.1"
   id="svg720"
   sodipodi:docname="Insp.svg"
   inkscape:version="1.3.2 (091e20e, 2023-11-25, custom)"
   xmlns:inkscape="http://www.inkscape.org/namespaces/inkscape"
   xmlns:sodipodi="http://sodipodi.sourceforge.net/DTD/sodipodi-0.dtd"
   xmlns:xlink="http://www.w3.org/1999/xlink"
   xmlns="http://www.w3.org/2000/svg"
   xmlns:svg="http://www.w3.org/2000/svg"
   xmlns:rdf="http://www.w3.org/1999/02/22-rdf-syntax-ns#"
   xmlns:cc="http://creativecommons.org/ns#"
   xmlns:dc="http://purl.org/dc/elements/1.1/">
  <metadata
     id="metadata724">
    <rdf:RDF>
      <cc:Work
         rdf:about="">
        <dc:format>image/svg+xml</dc:format>
        <dc:type
           rdf:resource="http://purl.org/dc/dcmitype/StillImage" />
      </cc:Work>
    </rdf:RDF>
  </metadata>
  <sodipodi:namedview
     pagecolor="#ffffff"
     bordercolor="#666666"
     borderopacity="1"
     objecttolerance="10"
     gridtolerance="10"
     guidetolerance="10"
     inkscape:pageopacity="0"
     inkscape:pageshadow="2"
     inkscape:window-width="1920"
     inkscape:window-height="991"
     id="namedview722"
     showgrid="false"
     inkscape:zoom="3.275313"
     inkscape:cx="48.392322"
     inkscape:cy="107.6233"
     inkscape:window-x="-9"
     inkscape:window-y="-9"
     inkscape:window-maximized="1"
     inkscape:current-layer="svg720"
     inkscape:document-rotation="0"
     inkscape:snap-bbox="true"
     inkscape:snap-bbox-midpoints="true"
     inkscape:showpageshadow="2"
     inkscape:pagecheckerboard="0"
     inkscape:deskcolor="#d1d1d1"
     showguides="false" />
  <style
     id="style2"><![CDATA[.B{stroke:#bc8810}.C{stroke-width:.148}.D{fill:#fddd10}.E{fill:#bc8810}.F{fill:#dbb110}.G{fill-rule:evenodd}.H{stroke-width:.529}.I{fill-rule:nonzero}]]></style>
  <path
     d="m 21.006491,53.687393 -1.473,-46.9399998 -8.958,-6.65900003 -8.958,6.65900003 -1.47200004,46.9399998 z"
     class="G"
     id="path4"
     inkscape:connector-curvature="0"
     style="fill:#a29c73;fill-rule:evenodd;stroke:#938862;stroke-width:0.28200001;fill-opacity:1;stroke-opacity:1" />
  <g
     transform="matrix(0.898192,0,0,0.892775,-0.11553298,-22.397428)"
     class="G"
     id="g404"
     style="fill-rule:evenodd">
    <g
       class="D B C"
       id="g364"
       style="fill:#fddd10;stroke:#bc8810;stroke-width:0.148">
      <g
         class="I"
         id="g354"
         style="fill-rule:nonzero">
        <path
           d="m 12.225,62.006 1.42,3.337 3.613,0.319 -2.735,2.382 0.813,3.535 -3.11,-1.865 -3.11,1.865 0.813,-3.535 -2.735,-2.382 3.613,-0.319 z"
           id="path338"
           inkscape:connector-curvature="0"
           style="paint-order:normal" />
        <path
           d="m 12.225,65.181 h 1.71 v 2.117 h -1.71 z"
           id="path340"
           inkscape:connector-curvature="0"
           style="paint-order:normal" />
        <ellipse
           cx="12.225"
           cy="67.296997"
           rx="2.7780001"
           ry="2.9100001"
           id="ellipse342"
           style="fill:#e2e3e0;fill-opacity:1;stroke:#a0a0a0;stroke-opacity:1;paint-order:normal" />
        <path
           d="m 12.225,65.181 0.568,1.335 1.445,0.128 -1.094,0.953 0.325,1.414 -1.244,-0.746 -1.244,0.746 0.325,-1.414 -1.094,-0.953 1.445,-0.128 z"
           id="path344"
           inkscape:connector-curvature="0"
           style="paint-order:normal" />
        <ellipse
           cx="12.225"
           cy="67.296997"
           rx="2.5139999"
           ry="2.6459999"
           id="ellipse346"
           style="fill:#e2e3e0;fill-opacity:1;stroke:#a0a0a0;stroke-opacity:1;paint-order:normal" />
        <ellipse
           cx="12.225"
           cy="67.296997"
           rx="2.2490001"
           ry="2.381"
           id="ellipse348"
           style="fill:#e2e3e0;fill-opacity:1;stroke:#a0a0a0;stroke-opacity:1;paint-order:normal" />
        <ellipse
           cx="12.225"
           cy="67.296997"
           rx="1.984"
           ry="2.1170001"
           id="ellipse350"
           style="fill:#e2e3e0;fill-opacity:1;stroke:#a0a0a0;stroke-opacity:1;paint-order:normal" />
        <ellipse
           cx="12.225"
           cy="67.296997"
           rx="1.72"
           ry="1.852"
           id="ellipse352"
           style="fill:#e2e3e0;fill-opacity:1;stroke:#a0a0a0;stroke-opacity:1;paint-order:normal" />
      </g>
      <use
         xlink:href="#C"
         id="use356"
         x="0"
         y="0"
         width="100%"
         height="100%"
         style="fill:#e2e3e0;fill-opacity:1" />
      <use
         xlink:href="#D"
         id="use358"
         x="0"
         y="0"
         width="100%"
         height="100%"
         style="fill:#bfbfbe;fill-opacity:1" />
      <use
         xlink:href="#E"
         id="use360"
         x="0"
         y="0"
         width="100%"
         height="100%"
         style="fill:#bfbfbe;fill-opacity:1" />
      <use
         xlink:href="#F"
         id="use362"
         x="0"
         y="0"
         width="100%"
         height="100%"
         style="fill:#bfbfbe;fill-opacity:1" />
    </g>
    <path
       d="m 15.001,67.627 2.257,-1.965 -5.033,1.635 z"
       class="F"
       id="path366"
       inkscape:connector-curvature="0"
       style="fill:#e2e3e0;fill-opacity:1" />
    <use
       xlink:href="#G"
       class="B C D"
       id="use368"
       style="fill:#bfbfbe;fill-opacity:1;stroke:#bc8810;stroke-width:0.148"
       x="0"
       y="0"
       width="100%"
       height="100%" />
    <g
       class="F"
       id="g374"
       style="fill:#dbb110">
      <path
         d="m 11.538,70.125 0.687,-2.828 -3.11,4.281 z"
         id="path370"
         inkscape:connector-curvature="0"
         style="fill:#e2e3e0;fill-opacity:1" />
      <path
         d="m 12.225,67.297 v -5.292 l -1.114,2.617 z"
         id="path372"
         inkscape:connector-curvature="0"
         style="fill:#bfbfbe;fill-opacity:1" />
    </g>
    <path
       d="m 9.115,71.578 3.11,-4.281 v -5.292"
       class="B C"
       id="path376"
       inkscape:connector-curvature="0"
       style="fill:none;stroke:#a0a0a0;stroke-width:0.148;stroke-opacity:1" />
    <g
       class="F"
       id="g382"
       style="fill:#dbb110">
      <path
         d="M 9.447,67.625 12.225,67.297 7.192,65.662 Z"
         id="path378"
         inkscape:connector-curvature="0"
         style="fill:#e2e3e0;fill-opacity:1" />
      <path
         d="m 12.905,70.121 2.431,1.458 -3.11,-4.281 z"
         id="path380"
         inkscape:connector-curvature="0"
         style="fill:#e2e3e0;fill-opacity:1" />
    </g>
    <g
       class="B C"
       id="g402"
       style="stroke:#bc8810;stroke-width:0.148">
      <g
         id="g398"
         style="fill:none">
        <path
           d="m 15.335,71.578 -3.11,-4.281"
           id="path384"
           inkscape:connector-curvature="0"
           style="stroke:#a0a0a0;stroke-opacity:1" />
        <use
           xlink:href="#C"
           id="use386"
           x="0"
           y="0"
           width="100%"
           height="100%"
           style="stroke:#a0a0a0;stroke-opacity:1" />
        <use
           xlink:href="#D"
           id="use388"
           x="0"
           y="0"
           width="100%"
           height="100%"
           style="stroke:#a0a0a0;stroke-opacity:1" />
        <use
           xlink:href="#E"
           id="use390"
           x="0"
           y="0"
           width="100%"
           height="100%"
           style="stroke:#a0a0a0;stroke-opacity:1" />
        <use
           xlink:href="#F"
           id="use392"
           x="0"
           y="0"
           width="100%"
           height="100%"
           style="stroke:#a0a0a0;stroke-opacity:1" />
        <use
           xlink:href="#G"
           id="use394"
           x="0"
           y="0"
           width="100%"
           height="100%"
           style="stroke:#a0a0a0;stroke-opacity:1" />
        <path
           d="m 7.192,65.662 5.033,1.635 5.033,-1.635"
           id="path396"
           inkscape:connector-curvature="0"
           style="stroke:#a0a0a0;stroke-opacity:1" />
      </g>
      <ellipse
         cx="12.225"
         cy="67.296997"
         rx="1.455"
         ry="1.5880001"
         class="D I"
         id="ellipse400"
         style="fill:#e2e3e0;fill-opacity:1;fill-rule:nonzero;stroke:#a0a0a0;stroke-opacity:1;paint-order:normal" />
    </g>
  </g>
  <g
     transform="matrix(0.898192,0,0,0.892775,-0.0754954,-31.30166)"
     class="G"
     id="g404-1-7"
     style="fill-rule:evenodd">
    <g
       class="D B C"
       id="g364-3-6"
       style="fill:#fddd10;stroke:#bc8810;stroke-width:0.148">
      <g
         class="I"
         id="g354-9-2"
         style="fill-rule:nonzero">
        <path
           d="m 12.225,62.006 1.42,3.337 3.613,0.319 -2.735,2.382 0.813,3.535 -3.11,-1.865 -3.11,1.865 0.813,-3.535 -2.735,-2.382 3.613,-0.319 z"
           id="path338-0-5"
           inkscape:connector-curvature="0"
           style="paint-order:normal" />
        <path
           d="m 12.225,65.181 h 1.71 v 2.117 h -1.71 z"
           id="path340-5-5"
           inkscape:connector-curvature="0"
           style="paint-order:normal" />
        <ellipse
           cx="12.225"
           cy="67.296997"
           rx="2.7780001"
           ry="2.9100001"
           id="ellipse342-2-8"
           style="fill:#e2e3e0;fill-opacity:1;stroke:#a0a0a0;stroke-opacity:1;paint-order:normal" />
        <path
           d="m 12.225,65.181 0.568,1.335 1.445,0.128 -1.094,0.953 0.325,1.414 -1.244,-0.746 -1.244,0.746 0.325,-1.414 -1.094,-0.953 1.445,-0.128 z"
           id="path344-4-5"
           inkscape:connector-curvature="0"
           style="paint-order:normal" />
        <ellipse
           cx="12.225"
           cy="67.296997"
           rx="2.5139999"
           ry="2.6459999"
           id="ellipse346-9-5"
           style="fill:#e2e3e0;fill-opacity:1;stroke:#a0a0a0;stroke-opacity:1;paint-order:normal" />
        <ellipse
           cx="12.225"
           cy="67.296997"
           rx="2.2490001"
           ry="2.381"
           id="ellipse348-8-2"
           style="fill:#e2e3e0;fill-opacity:1;stroke:#a0a0a0;stroke-opacity:1;paint-order:normal" />
        <ellipse
           cx="12.225"
           cy="67.296997"
           rx="1.984"
           ry="2.1170001"
           id="ellipse350-2-6"
           style="fill:#e2e3e0;fill-opacity:1;stroke:#a0a0a0;stroke-opacity:1;paint-order:normal" />
        <ellipse
           cx="12.225"
           cy="67.296997"
           rx="1.72"
           ry="1.852"
           id="ellipse352-4-0"
           style="fill:#e2e3e0;fill-opacity:1;stroke:#a0a0a0;stroke-opacity:1;paint-order:normal" />
      </g>
      <use
         xlink:href="#C"
         id="use356-3-2"
         x="0"
         y="0"
         width="100%"
         height="100%"
         style="fill:#e2e3e0;fill-opacity:1" />
      <use
         xlink:href="#D"
         id="use358-1-4"
         x="0"
         y="0"
         width="100%"
         height="100%"
         style="fill:#bfbfbe;fill-opacity:1" />
      <use
         xlink:href="#E"
         id="use360-4-2"
         x="0"
         y="0"
         width="100%"
         height="100%"
         style="fill:#bfbfbe;fill-opacity:1" />
      <use
         xlink:href="#F"
         id="use362-3-2"
         x="0"
         y="0"
         width="100%"
         height="100%"
         style="fill:#bfbfbe;fill-opacity:1" />
    </g>
    <path
       d="m 15.001,67.627 2.257,-1.965 -5.033,1.635 z"
       class="F"
       id="path366-5-2"
       inkscape:connector-curvature="0"
       style="fill:#e2e3e0;fill-opacity:1" />
    <use
       xlink:href="#G"
       class="B C D"
       id="use368-8-4"
       style="fill:#bfbfbe;fill-opacity:1;stroke:#bc8810;stroke-width:0.148"
       x="0"
       y="0"
       width="100%"
       height="100%" />
    <g
       class="F"
       id="g374-8-6"
       style="fill:#dbb110">
      <path
         d="m 11.538,70.125 0.687,-2.828 -3.11,4.281 z"
         id="path370-6-0"
         inkscape:connector-curvature="0"
         style="fill:#e2e3e0;fill-opacity:1" />
      <path
         d="m 12.225,67.297 v -5.292 l -1.114,2.617 z"
         id="path372-7-1"
         inkscape:connector-curvature="0"
         style="fill:#bfbfbe;fill-opacity:1" />
    </g>
    <path
       d="m 9.115,71.578 3.11,-4.281 v -5.292"
       class="B C"
       id="path376-8-0"
       inkscape:connector-curvature="0"
       style="fill:none;stroke:#a0a0a0;stroke-width:0.148;stroke-opacity:1" />
    <g
       class="F"
       id="g382-4-2"
       style="fill:#dbb110">
      <path
         d="M 9.447,67.625 12.225,67.297 7.192,65.662 Z"
         id="path378-7-7"
         inkscape:connector-curvature="0"
         style="fill:#e2e3e0;fill-opacity:1" />
      <path
         d="m 12.905,70.121 2.431,1.458 -3.11,-4.281 z"
         id="path380-9-4"
         inkscape:connector-curvature="0"
         style="fill:#e2e3e0;fill-opacity:1" />
    </g>
    <g
       class="B C"
       id="g402-5-3"
       style="stroke:#bc8810;stroke-width:0.148">
      <g
         id="g398-2-9"
         style="fill:none">
        <path
           d="m 15.335,71.578 -3.11,-4.281"
           id="path384-9-1"
           inkscape:connector-curvature="0"
           style="stroke:#a0a0a0;stroke-opacity:1" />
        <use
           xlink:href="#C"
           id="use386-7-4"
           x="0"
           y="0"
           width="100%"
           height="100%"
           style="stroke:#a0a0a0;stroke-opacity:1" />
        <use
           xlink:href="#D"
           id="use388-9-7"
           x="0"
           y="0"
           width="100%"
           height="100%"
           style="stroke:#a0a0a0;stroke-opacity:1" />
        <use
           xlink:href="#E"
           id="use390-9-6"
           x="0"
           y="0"
           width="100%"
           height="100%"
           style="stroke:#a0a0a0;stroke-opacity:1" />
        <use
           xlink:href="#F"
           id="use392-2-3"
           x="0"
           y="0"
           width="100%"
           height="100%"
           style="stroke:#a0a0a0;stroke-opacity:1" />
        <use
           xlink:href="#G"
           id="use394-6-5"
           x="0"
           y="0"
           width="100%"
           height="100%"
           style="stroke:#a0a0a0;stroke-opacity:1" />
        <path
           d="m 7.192,65.662 5.033,1.635 5.033,-1.635"
           id="path396-0-0"
           inkscape:connector-curvature="0"
           style="stroke:#a0a0a0;stroke-opacity:1" />
      </g>
      <ellipse
         cx="12.225"
         cy="67.296997"
         rx="1.455"
         ry="1.5880001"
         class="D I"
         id="ellipse400-5-3"
         style="fill:#e2e3e0;fill-opacity:1;fill-rule:nonzero;stroke:#a0a0a0;stroke-opacity:1;paint-order:normal" />
    </g>
  </g>
  <g
     transform="matrix(0.898192,0,0,0.892775,-0.09873897,-40.592656)"
     class="G"
     id="g404-1-7-4"
     style="fill-rule:evenodd">
    <g
       class="D B C"
       id="g364-3-6-5"
       style="fill:#fddd10;stroke:#bc8810;stroke-width:0.148">
      <g
         class="I"
         id="g354-9-2-0"
         style="fill-rule:nonzero">
        <path
           d="m 12.225,62.006 1.42,3.337 3.613,0.319 -2.735,2.382 0.813,3.535 -3.11,-1.865 -3.11,1.865 0.813,-3.535 -2.735,-2.382 3.613,-0.319 z"
           id="path338-0-5-6"
           inkscape:connector-curvature="0"
           style="paint-order:normal" />
        <path
           d="m 12.225,65.181 h 1.71 v 2.117 h -1.71 z"
           id="path340-5-5-1"
           inkscape:connector-curvature="0"
           style="paint-order:normal" />
        <ellipse
           cx="12.225"
           cy="67.296997"
           rx="2.7780001"
           ry="2.9100001"
           id="ellipse342-2-8-0"
           style="fill:#e2e3e0;fill-opacity:1;stroke:#a0a0a0;stroke-opacity:1;paint-order:normal" />
        <path
           d="m 12.225,65.181 0.568,1.335 1.445,0.128 -1.094,0.953 0.325,1.414 -1.244,-0.746 -1.244,0.746 0.325,-1.414 -1.094,-0.953 1.445,-0.128 z"
           id="path344-4-5-8"
           inkscape:connector-curvature="0"
           style="paint-order:normal" />
        <ellipse
           cx="12.225"
           cy="67.296997"
           rx="2.5139999"
           ry="2.6459999"
           id="ellipse346-9-5-1"
           style="fill:#e2e3e0;fill-opacity:1;stroke:#a0a0a0;stroke-opacity:1;paint-order:normal" />
        <ellipse
           cx="12.225"
           cy="67.296997"
           rx="2.2490001"
           ry="2.381"
           id="ellipse348-8-2-0"
           style="fill:#e2e3e0;fill-opacity:1;stroke:#a0a0a0;stroke-opacity:1;paint-order:normal" />
        <ellipse
           cx="12.225"
           cy="67.296997"
           rx="1.984"
           ry="2.1170001"
           id="ellipse350-2-6-4"
           style="fill:#e2e3e0;fill-opacity:1;stroke:#a0a0a0;stroke-opacity:1;paint-order:normal" />
        <ellipse
           cx="12.225"
           cy="67.296997"
           rx="1.72"
           ry="1.852"
           id="ellipse352-4-0-1"
           style="fill:#e2e3e0;fill-opacity:1;stroke:#a0a0a0;stroke-opacity:1;paint-order:normal" />
      </g>
      <use
         xlink:href="#C"
         id="use356-3-2-7"
         x="0"
         y="0"
         width="100%"
         height="100%"
         style="fill:#e2e3e0;fill-opacity:1" />
      <use
         xlink:href="#D"
         id="use358-1-4-6"
         x="0"
         y="0"
         width="100%"
         height="100%"
         style="fill:#bfbfbe;fill-opacity:1" />
      <use
         xlink:href="#E"
         id="use360-4-2-2"
         x="0"
         y="0"
         width="100%"
         height="100%"
         style="fill:#bfbfbe;fill-opacity:1" />
      <use
         xlink:href="#F"
         id="use362-3-2-6"
         x="0"
         y="0"
         width="100%"
         height="100%"
         style="fill:#bfbfbe;fill-opacity:1" />
    </g>
    <path
       d="m 15.001,67.627 2.257,-1.965 -5.033,1.635 z"
       class="F"
       id="path366-5-2-2"
       inkscape:connector-curvature="0"
       style="fill:#e2e3e0;fill-opacity:1" />
    <use
       xlink:href="#G"
       class="B C D"
       id="use368-8-4-1"
       style="fill:#bfbfbe;fill-opacity:1;stroke:#bc8810;stroke-width:0.148"
       x="0"
       y="0"
       width="100%"
       height="100%" />
    <g
       class="F"
       id="g374-8-6-8"
       style="fill:#dbb110">
      <path
         d="m 11.538,70.125 0.687,-2.828 -3.11,4.281 z"
         id="path370-6-0-8"
         inkscape:connector-curvature="0"
         style="fill:#e2e3e0;fill-opacity:1" />
      <path
         d="m 12.225,67.297 v -5.292 l -1.114,2.617 z"
         id="path372-7-1-1"
         inkscape:connector-curvature="0"
         style="fill:#bfbfbe;fill-opacity:1" />
    </g>
    <path
       d="m 9.115,71.578 3.11,-4.281 v -5.292"
       class="B C"
       id="path376-8-0-3"
       inkscape:connector-curvature="0"
       style="fill:none;stroke:#a0a0a0;stroke-width:0.148;stroke-opacity:1" />
    <g
       class="F"
       id="g382-4-2-5"
       style="fill:#dbb110">
      <path
         d="M 9.447,67.625 12.225,67.297 7.192,65.662 Z"
         id="path378-7-7-7"
         inkscape:connector-curvature="0"
         style="fill:#e2e3e0;fill-opacity:1" />
      <path
         d="m 12.905,70.121 2.431,1.458 -3.11,-4.281 z"
         id="path380-9-4-9"
         inkscape:connector-curvature="0"
         style="fill:#e2e3e0;fill-opacity:1" />
    </g>
    <g
       class="B C"
       id="g402-5-3-9"
       style="stroke:#bc8810;stroke-width:0.148">
      <g
         id="g398-2-9-8"
         style="fill:none">
        <path
           d="m 15.335,71.578 -3.11,-4.281"
           id="path384-9-1-9"
           inkscape:connector-curvature="0"
           style="stroke:#a0a0a0;stroke-opacity:1" />
        <use
           xlink:href="#C"
           id="use386-7-4-8"
           x="0"
           y="0"
           width="100%"
           height="100%"
           style="stroke:#a0a0a0;stroke-opacity:1" />
        <use
           xlink:href="#D"
           id="use388-9-7-7"
           x="0"
           y="0"
           width="100%"
           height="100%"
           style="stroke:#a0a0a0;stroke-opacity:1" />
        <use
           xlink:href="#E"
           id="use390-9-6-3"
           x="0"
           y="0"
           width="100%"
           height="100%"
           style="stroke:#a0a0a0;stroke-opacity:1" />
        <use
           xlink:href="#F"
           id="use392-2-3-4"
           x="0"
           y="0"
           width="100%"
           height="100%"
           style="stroke:#a0a0a0;stroke-opacity:1" />
        <use
           xlink:href="#G"
           id="use394-6-5-4"
           x="0"
           y="0"
           width="100%"
           height="100%"
           style="stroke:#a0a0a0;stroke-opacity:1" />
        <path
           d="m 7.192,65.662 5.033,1.635 5.033,-1.635"
           id="path396-0-0-7"
           inkscape:connector-curvature="0"
           style="stroke:#a0a0a0;stroke-opacity:1" />
      </g>
      <ellipse
         cx="12.225"
         cy="67.296997"
         rx="1.455"
         ry="1.5880001"
         class="D I"
         id="ellipse400-5-3-5"
         style="fill:#e2e3e0;fill-opacity:1;fill-rule:nonzero;stroke:#a0a0a0;stroke-opacity:1;paint-order:normal" />
    </g>
  </g>
  <path
     d="M 0.16814784,46.196855 H 21.109323 V 43.991532 H 0.16814784 Z"
     inkscape:connector-curvature="0"
     id="path1912"
     style="display:inline;fill:#ed1c24;fill-opacity:1;fill-rule:nonzero;stroke:none;stroke-width:0.0117795" />
  <path
     d="M 0.16814784,48.572014 H 21.109323 V 46.285683 H 0.16814784 Z"
     inkscape:connector-curvature="0"
     id="path1914"
     style="display:inline;fill:#1a364f;fill-opacity:1;fill-rule:nonzero;stroke:none;stroke-width:0.011994" />
  <defs
     id="defs718">
    <path
       id="B"
       d="m 14.615,50.603 c -0.02,0 -0.04,-0.006 -0.057,-0.019 l -1.566,-1.14 -2.872,-2.089 -1.301,0.964 0.136,0.207 c 0.02,0.031 0.024,0.071 0.009,0.105 L 8.545,49.618 C 8.53,49.653 8.499,49.677 8.463,49.68 8.427,49.683 8.392,49.667 8.371,49.635 L 7.934,48.974 6.074,50.352 C 5.982,50.411 5.846,50.485 5.665,50.487 H 5.654 c -0.037,0 -0.077,-0.003 -0.117,-0.01 L 5.505,50.47 C 5.083,50.386 4.764,50.02 4.716,49.559 4.687,49.276 4.759,49.032 4.924,48.852 5.084,48.679 5.316,48.584 5.597,48.578 h 0.02 c 0.128,0 0.252,0.029 0.363,0.085 L 7.147,47.78 6.694,47.095 C 6.679,47.072 6.673,47.043 6.677,47.016 6.681,46.989 6.697,46.964 6.718,46.947 L 6.74,46.931 c 0.017,-0.012 0.036,-0.019 0.056,-0.019 l 1.04,-0.009 c 0.034,0 0.065,0.017 0.083,0.046 L 8.088,47.207 8.909,46.476 4.423,43.21 C 4.401,43.194 4.386,43.169 4.381,43.141 4.376,43.113 4.382,43.084 4.397,43.061 l 0.921,-1.396 c 0.032,-0.048 0.094,-0.06 0.139,-0.027 l 4.791,3.486 0.046,-0.05 0.206,-0.244 0.063,-0.075 c 1.149,-1.368 2.58,-3.071 4.387,-3.071 0.464,0 0.932,0.117 1.392,0.348 l 0.213,0.101 0.206,0.114 c 0.03,0.018 0.049,0.051 0.051,0.087 0.002,0.036 -0.015,0.071 -0.043,0.092 l -0.184,0.136 -4.883,3.619 3.891,2.832 c 0.022,0.016 0.037,0.041 0.042,0.069 0.005,0.028 -10e-4,0.057 -0.017,0.08 l -0.922,1.396 c -0.02,0.029 -0.051,0.045 -0.082,0.045"
       inkscape:connector-curvature="0" />
    <path
       id="C"
       d="m 12.225,62.006 -1.114,2.617 1.114,2.674 1.107,-2.69 z"
       inkscape:connector-curvature="0" />
    <path
       id="D"
       d="m 9.783,68.675 -0.668,2.904 2.423,-1.453 0.687,-2.828 z"
       inkscape:connector-curvature="0" />
    <path
       id="E"
       d="m 17.258,65.662 -2.923,-0.258 -2.11,1.893 2.775,0.33 z"
       inkscape:connector-curvature="0" />
    <path
       id="F"
       d="m 10.092,65.406 -2.9,0.256 2.254,1.963 2.778,-0.328 z"
       inkscape:connector-curvature="0" />
    <path
       id="G"
       d="m 12.225,67.297 0.68,2.823 2.431,1.458 -0.657,-2.856 z"
       inkscape:connector-curvature="0" />
  </defs>
</svg>
